. 
 
http://www.torrenting.com          :     Once & For all ;)


               www . Torrenting . Com 

(((((((((((((= Enjoy No RAR releases =))))))))))))))))))))


...................................NFO:....................................

.








































          
          
              
              
                    
                    
                    
                    

Margin.Call.2011.RCRip.XviD.AC3-SiC

Poster:
[img]http://img64.imageshack.us/img64/9796/mv5bmje5nzkyndi2nl5bml5.jpg[/img]

IMDB Link:
http://www.imdb.com/title/tt1615147/

Description:
A thriller that revolves around the key people at a investment bank over a 24-hour period during the early stages of the financial crisis. 

MediaInfo:
General
Complete name                    : Margin.Call.2011.RCRip.XviD.AC3-SiC.avi
Format                           : AVI
Format/Info                      : Audio Video Interleave
File size                        : 1.37 GiB
Duration                         : 1h 46mn
Overall bit rate                 : 1 839 Kbps

Video
ID                               : 0
Format                           : MPEG-4 Visual
Format profile                   : Advanced Simple@L5
Format settings, BVOP            : 2
Format settings, QPel            : No
Format settings, GMC             : No warppoints
Format settings, Matrix          : Default (MPEG)
Muxing mode                      : Packed bitstream
Codec ID                         : XVID
Codec ID/Hint                    : XviD
Duration                         : 1h 46mn
Bit rate                         : 1 447 Kbps
Width                            : 720 pixels
Height                           : 384 pixels
Display aspect ratio             : 1.875
Frame rate                       : 24.000 fps
Color space                      : YUV
Chroma subsampling               : 4:2:0
Bit depth                        : 8 bits
Scan type                        : Progressive
Compression mode                 : Lossy
Bits/(Pixel*Frame)               : 0.218
Stream size                      : 1.08 GiB (79%)
Writing library                  : XviD 64

Audio
ID                               : 1
Format                           : AC-3
Format/Info                      : Audio Coding 3
Mode extension                   : CM (complete main)
Codec ID                         : 2000
Duration                         : 1h 46mn
Bit rate mode                    : Constant
Bit rate                         : 384 Kbps
Channel(s)                       : 6 channels
Channel positions                : Front: L C R, Side: L R, LFE
Sampling rate                    : 48.0 KHz
Bit depth                        : 16 bits
Compression mode                 : Lossy
Stream size                      : 292 MiB (21%)
Alignment                        : Aligned on interleaves
Interleave, duration             : 64 ms (1.54 video frames)
Interleave, preload duration     : 192 ms
Title                            : Margin.Call.2011.BluRay.1080p.x264.DTS-LTT - English


Screenshots:
[img]http://img542.imageshack.us/img542/4881/snap1p.png[/img]
[img]http://img265.imageshack.us/img265/5242/snap2pl.png[/img]
[img]http://img836.imageshack.us/img836/7733/snap3i.png[/img]
[img]http://img834.imageshack.us/img834/5192/snap4j.png[/img]
[img]http://img254.imageshack.us/img254/8582/snap5l.png[/img]


Note : did my thing and it turned out nice but audio has clipping still... 

Source: 1080 LTT thnx

Enjoy!

Respects to CaptainHomey, Cyanide, CM8, Rx, THC, ELEKTRI4KA, 
Killerhz, PA, YeFsTe, Box, MrRep and everyone in the struggle...